<svg xmlns="http://www.w3.org/2000/svg" width="360" height="150" viewBox="0 0 360 150" role="img" aria-label="Endpoint-JS">
<title>Endpoint-JS</title>
<defs><radialGradient id="g" cx=".15" cy=".2" r=".9"><stop offset="0" stop-color="#d97706" stop-opacity=".16"/><stop offset="1" stop-color="#d97706" stop-opacity="0"/></radialGradient></defs>
<style>.sweep{stroke-dasharray:24 100;animation:sw 5s linear infinite}@keyframes sw{to{stroke-dashoffset:-124}}
.flo{animation:flo 4s ease-in-out infinite}@keyframes flo{0%,100%{transform:translateY(0)}50%{transform:translateY(-3px)}}
.bk{animation:bk 1.3s step-end infinite}@keyframes bk{50%{opacity:.2}}@media (prefers-reduced-motion: reduce){*{animation:none!important}}</style>
<rect x="1.5" y="1.5" width="357" height="147" rx="16" fill="#ffffff"/>
<rect x="1.5" y="1.5" width="357" height="147" rx="16" fill="url(#g)"/>
<rect x="26" y="26" width="56" height="56" rx="14" fill="#d97706" fill-opacity=".10" stroke="#d97706" stroke-opacity=".45"/>
<g class="flo"><g transform="translate(54 54) scale(1.05)"><circle cx="0" cy="0" r="13" fill="none" stroke="#d97706" stroke-width="2.4" stroke-linecap="round" stroke-linejoin="round"/><circle cx="0" cy="0" r="6" fill="none" stroke="#d97706" stroke-width="2.4" stroke-linecap="round" stroke-linejoin="round"/><path d="M0 -16 V-11 M0 11 V16 M-16 0 H-11 M11 0 H16" fill="none" stroke="#d97706" stroke-width="2.4" stroke-linecap="round" stroke-linejoin="round"/></g></g>
<text x="100" y="52" font-family="-apple-system,BlinkMacSystemFont,'Segoe UI',Helvetica,Arial,sans-serif" font-size="24" font-weight="800" fill="#1f2328">Endpoint-JS</text>
<text x="100" y="76" font-family="ui-monospace,SFMono-Regular,Menlo,Consolas,'Liberation Mono',monospace" font-size="13" fill="#59636e">js endpoints</text>
<text x="26" y="118" font-family="ui-monospace,SFMono-Regular,Menlo,Consolas,'Liberation Mono',monospace" font-size="13" fill="#59636e">$ git clone <tspan class="bk" fill="#d97706">_</tspan></text>
<path d="M17.5 1.5 H342.5 A16 16 0 0 1 358.5 17.5 V132.5 A16 16 0 0 1 342.5 148.5 H17.5 A16 16 0 0 1 1.5 132.5 V17.5 A16 16 0 0 1 17.5 1.5 Z" fill="none" stroke="#d97706" stroke-opacity=".2" stroke-width="1.5"/>
<path class="sweep" d="M17.5 1.5 H342.5 A16 16 0 0 1 358.5 17.5 V132.5 A16 16 0 0 1 342.5 148.5 H17.5 A16 16 0 0 1 1.5 132.5 V17.5 A16 16 0 0 1 17.5 1.5 Z" pathLength="124" fill="none" stroke="#d97706" stroke-width="2.5" stroke-linecap="round"/>
</svg>
