<svg xmlns="http://www.w3.org/2000/svg" width="1200" height="460" viewBox="0 0 1200 460" role="img" aria-label="Hacking Notes">
<title>Hacking Notes</title>
<defs>
  <linearGradient id="ti" x1="0" x2="1"><stop offset="0.000" stop-color="#5b7cfa"/><stop offset="0.500" stop-color="#e85aa8"/><stop offset="1.000" stop-color="#9a7cf0"/>
    <animateTransform attributeName="gradientTransform" type="translate" values="-0.3 0;0.3 0;-0.3 0" dur="8s" repeatCount="indefinite"/></linearGradient>
  <radialGradient id="gl" cx=".5" cy=".42" r=".6"><stop offset="0" stop-color="#5b7cfa" stop-opacity=".10"/><stop offset="1" stop-color="#5b7cfa" stop-opacity="0"/></radialGradient>
  <linearGradient id="sc" x1="0" x2="0" y1="0" y2="1"><stop offset="0" stop-color="#e85aa8" stop-opacity="0"/><stop offset=".5" stop-color="#e85aa8" stop-opacity=".10"/><stop offset="1" stop-color="#e85aa8" stop-opacity="0"/></linearGradient>
  <pattern id="gr" width="40" height="40" patternUnits="userSpaceOnUse"><path d="M40 0 H0 V40" fill="none" stroke="#5b7cfa" stroke-opacity=".10" stroke-width="1"/><animateTransform attributeName="patternTransform" type="translate" from="0 0" to="0 40" dur="4s" repeatCount="indefinite"/></pattern>
  <linearGradient id="fd" x1="0" x2="0" y1="0" y2="1"><stop offset="0" stop-color="#fff" stop-opacity="0"/><stop offset=".32" stop-color="#fff"/><stop offset=".82" stop-color="#fff"/><stop offset="1" stop-color="#fff" stop-opacity="0"/></linearGradient>
  <mask id="fm"><rect width="1200" height="460" fill="url(#fd)"/></mask>
  <clipPath id="fr"><rect width="1200" height="460" rx="20"/></clipPath>
  <clipPath id="ty"><rect class="typer" x="296.4" y="250" width="607.2" height="40"/></clipPath>
</defs>
<style>
  .rain{font-family:ui-monospace,SFMono-Regular,Menlo,Consolas,'Liberation Mono',monospace;font-size:15px;fill:#5b7cfa;animation:fall linear infinite}
  @keyframes fall{from{transform:translateY(-460px)}to{transform:translateY(460px)}}
  .scan{animation:scn 6s linear infinite} @keyframes scn{from{transform:translateY(-160px)}to{transform:translateY(460px)}}
  .typer{transform-box:fill-box;transform-origin:left;animation:ty 9s steps(46,end) infinite}
  @keyframes ty{0%{transform:scaleX(0)}45%,90%{transform:scaleX(1)}100%{transform:scaleX(0)}}
  .cur{animation:cu 9s steps(46,end) infinite,bl 1s step-end infinite}
  @keyframes cu{0%{transform:translateX(0)}45%,90%{transform:translateX(607.2px)}100%{transform:translateX(0)}}
  @keyframes bl{50%{opacity:0}}
  .g1{animation:g1 5s infinite} .g2{animation:g2 5s infinite}
  @keyframes g1{0%,88%,100%{transform:translate(0,0);opacity:0}90%{transform:translate(-5px,2px);opacity:.75}93%{transform:translate(4px,-2px);opacity:.75}96%{transform:translate(-2px,0);opacity:.5}}
  @keyframes g2{0%,88%,100%{transform:translate(0,0);opacity:0}90%{transform:translate(5px,-2px);opacity:.75}93%{transform:translate(-4px,2px);opacity:.75}96%{transform:translate(2px,0);opacity:.5}}
  .dot{animation:pu 2.4s ease-in-out infinite} @keyframes pu{0%,100%{opacity:.55}50%{opacity:1}}
  .badge{animation:pu 3s ease-in-out infinite}
  @media (prefers-reduced-motion: reduce){*{animation:none!important}}
</style>
<g clip-path="url(#fr)">
  <rect width="1200" height="460" fill="#0a0a0a"/>
  <rect width="1200" height="460" fill="url(#gr)" mask="url(#fm)"/>
  <g mask="url(#fm)"><text class="rain" style="animation-duration:11.5s;animation-delay:-1.5s" opacity="0.10"><tspan x="16" dy="19">0</tspan><tspan x="16" dy="19">1</tspan><tspan x="16" dy="19">0</tspan><tspan x="16" dy="19">0</tspan><tspan x="16" dy="19">0</tspan><tspan x="16" dy="19">1</tspan><tspan x="16" dy="19">0</tspan><tspan x="16" dy="19">0</tspan><tspan x="16" dy="19">0</tspan><tspan x="16" dy="19">0</tspan><tspan x="16" dy="19">1</tspan><tspan x="16" dy="19">1</tspan><tspan x="16" dy="19">0</tspan><tspan x="16" dy="19">0</tspan><tspan x="16" dy="19">0</tspan><tspan x="16" dy="19">1</tspan><tspan x="16" dy="19">0</tspan><tspan x="16" dy="19">0</tspan><tspan x="16" dy="19">0</tspan><tspan x="16" dy="19">0</tspan><tspan x="16" dy="19">1</tspan><tspan x="16" dy="19">0</tspan><tspan x="16" dy="19">0</tspan><tspan x="16" dy="19">0</tspan></text><text class="rain" style="animation-duration:12.8s;animation-delay:-3.7s" opacity="0.16"><tspan x="52" dy="19">0</tspan><tspan x="52" dy="19">1</tspan><tspan x="52" dy="19">0</tspan><tspan x="52" dy="19">0</tspan><tspan x="52" dy="19">0</tspan><tspan x="52" dy="19">1</tspan><tspan x="52" dy="19">0</tspan><tspan x="52" dy="19">0</tspan><tspan x="52" dy="19">0</tspan><tspan x="52" dy="19">0</tspan><tspan x="52" dy="19">1</tspan><tspan x="52" dy="19">1</tspan><tspan x="52" dy="19">1</tspan><tspan x="52" dy="19">1</tspan><tspan x="52" dy="19">1</tspan><tspan x="52" dy="19">1</tspan><tspan x="52" dy="19">1</tspan><tspan x="52" dy="19">0</tspan><tspan x="52" dy="19">0</tspan><tspan x="52" dy="19">0</tspan><tspan x="52" dy="19">0</tspan><tspan x="52" dy="19">1</tspan><tspan x="52" dy="19">1</tspan><tspan x="52" dy="19">1</tspan></text><text class="rain" style="animation-duration:7.2s;animation-delay:-3.3s" opacity="0.07"><tspan x="78" dy="19">1</tspan><tspan x="78" dy="19">0</tspan><tspan x="78" dy="19">1</tspan><tspan x="78" dy="19">0</tspan><tspan x="78" dy="19">1</tspan><tspan x="78" dy="19">1</tspan><tspan x="78" dy="19">0</tspan><tspan x="78" dy="19">0</tspan><tspan x="78" dy="19">1</tspan><tspan x="78" dy="19">1</tspan><tspan x="78" dy="19">1</tspan><tspan x="78" dy="19">1</tspan><tspan x="78" dy="19">1</tspan><tspan x="78" dy="19">0</tspan><tspan x="78" dy="19">0</tspan><tspan x="78" dy="19">1</tspan><tspan x="78" dy="19">1</tspan><tspan x="78" dy="19">0</tspan><tspan x="78" dy="19">0</tspan><tspan x="78" dy="19">1</tspan><tspan x="78" dy="19">1</tspan><tspan x="78" dy="19">1</tspan><tspan x="78" dy="19">1</tspan><tspan x="78" dy="19">1</tspan></text><text class="rain" style="animation-duration:8.2s;animation-delay:-5.4s" opacity="0.05"><tspan x="111" dy="19">1</tspan><tspan x="111" dy="19">0</tspan><tspan x="111" dy="19">0</tspan><tspan x="111" dy="19">1</tspan><tspan x="111" dy="19">0</tspan><tspan x="111" dy="19">0</tspan><tspan x="111" dy="19">1</tspan><tspan x="111" dy="19">1</tspan><tspan x="111" dy="19">1</tspan><tspan x="111" dy="19">0</tspan><tspan x="111" dy="19">0</tspan><tspan x="111" dy="19">1</tspan><tspan x="111" dy="19">1</tspan><tspan x="111" dy="19">1</tspan><tspan x="111" dy="19">0</tspan><tspan x="111" dy="19">1</tspan><tspan x="111" dy="19">1</tspan><tspan x="111" dy="19">1</tspan><tspan x="111" dy="19">1</tspan><tspan x="111" dy="19">1</tspan><tspan x="111" dy="19">0</tspan><tspan x="111" dy="19">0</tspan><tspan x="111" dy="19">0</tspan><tspan x="111" dy="19">0</tspan></text><text class="rain" style="animation-duration:7.9s;animation-delay:-4.7s" opacity="0.06"><tspan x="152" dy="19">0</tspan><tspan x="152" dy="19">1</tspan><tspan x="152" dy="19">1</tspan><tspan x="152" dy="19">0</tspan><tspan x="152" dy="19">0</tspan><tspan x="152" dy="19">1</tspan><tspan x="152" dy="19">1</tspan><tspan x="152" dy="19">1</tspan><tspan x="152" dy="19">0</tspan><tspan x="152" dy="19">0</tspan><tspan x="152" dy="19">1</tspan><tspan x="152" dy="19">1</tspan><tspan x="152" dy="19">1</tspan><tspan x="152" dy="19">1</tspan><tspan x="152" dy="19">1</tspan><tspan x="152" dy="19">0</tspan><tspan x="152" dy="19">1</tspan><tspan x="152" dy="19">1</tspan><tspan x="152" dy="19">0</tspan><tspan x="152" dy="19">0</tspan><tspan x="152" dy="19">0</tspan><tspan x="152" dy="19">0</tspan><tspan x="152" dy="19">1</tspan><tspan x="152" dy="19">0</tspan></text><text class="rain" style="animation-duration:10.8s;animation-delay:-7.5s" opacity="0.11"><tspan x="185" dy="19">0</tspan><tspan x="185" dy="19">0</tspan><tspan x="185" dy="19">1</tspan><tspan x="185" dy="19">0</tspan><tspan x="185" dy="19">0</tspan><tspan x="185" dy="19">0</tspan><tspan x="185" dy="19">1</tspan><tspan x="185" dy="19">0</tspan><tspan x="185" dy="19">1</tspan><tspan x="185" dy="19">1</tspan><tspan x="185" dy="19">1</tspan><tspan x="185" dy="19">1</tspan><tspan x="185" dy="19">0</tspan><tspan x="185" dy="19">0</tspan><tspan x="185" dy="19">1</tspan><tspan x="185" dy="19">1</tspan><tspan x="185" dy="19">1</tspan><tspan x="185" dy="19">1</tspan><tspan x="185" dy="19">1</tspan><tspan x="185" dy="19">0</tspan><tspan x="185" dy="19">0</tspan><tspan x="185" dy="19">0</tspan><tspan x="185" dy="19">1</tspan><tspan x="185" dy="19">1</tspan></text><text class="rain" style="animation-duration:8.5s;animation-delay:-5.2s" opacity="0.09"><tspan x="212" dy="19">1</tspan><tspan x="212" dy="19">0</tspan><tspan x="212" dy="19">0</tspan><tspan x="212" dy="19">1</tspan><tspan x="212" dy="19">0</tspan><tspan x="212" dy="19">1</tspan><tspan x="212" dy="19">1</tspan><tspan x="212" dy="19">0</tspan><tspan x="212" dy="19">1</tspan><tspan x="212" dy="19">0</tspan><tspan x="212" dy="19">1</tspan><tspan x="212" dy="19">0</tspan><tspan x="212" dy="19">0</tspan><tspan x="212" dy="19">0</tspan><tspan x="212" dy="19">1</tspan><tspan x="212" dy="19">0</tspan><tspan x="212" dy="19">0</tspan><tspan x="212" dy="19">1</tspan><tspan x="212" dy="19">1</tspan><tspan x="212" dy="19">0</tspan><tspan x="212" dy="19">0</tspan><tspan x="212" dy="19">1</tspan><tspan x="212" dy="19">1</tspan><tspan x="212" dy="19">1</tspan></text><text class="rain" style="animation-duration:10.2s;animation-delay:-9.7s" opacity="0.13"><tspan x="247" dy="19">1</tspan><tspan x="247" dy="19">0</tspan><tspan x="247" dy="19">0</tspan><tspan x="247" dy="19">0</tspan><tspan x="247" dy="19">0</tspan><tspan x="247" dy="19">1</tspan><tspan x="247" dy="19">0</tspan><tspan x="247" dy="19">1</tspan><tspan x="247" dy="19">0</tspan><tspan x="247" dy="19">1</tspan><tspan x="247" dy="19">0</tspan><tspan x="247" dy="19">1</tspan><tspan x="247" dy="19">1</tspan><tspan x="247" dy="19">0</tspan><tspan x="247" dy="19">0</tspan><tspan x="247" dy="19">1</tspan><tspan x="247" dy="19">0</tspan><tspan x="247" dy="19">1</tspan><tspan x="247" dy="19">0</tspan><tspan x="247" dy="19">1</tspan><tspan x="247" dy="19">1</tspan><tspan x="247" dy="19">0</tspan><tspan x="247" dy="19">1</tspan><tspan x="247" dy="19">1</tspan></text><text class="rain" style="animation-duration:13.7s;animation-delay:-0.8s" opacity="0.13"><tspan x="277" dy="19">0</tspan><tspan x="277" dy="19">0</tspan><tspan x="277" dy="19">0</tspan><tspan x="277" dy="19">1</tspan><tspan x="277" dy="19">0</tspan><tspan x="277" dy="19">1</tspan><tspan x="277" dy="19">1</tspan><tspan x="277" dy="19">0</tspan><tspan x="277" dy="19">0</tspan><tspan x="277" dy="19">0</tspan><tspan x="277" dy="19">0</tspan><tspan x="277" dy="19">0</tspan><tspan x="277" dy="19">0</tspan><tspan x="277" dy="19">1</tspan><tspan x="277" dy="19">0</tspan><tspan x="277" dy="19">0</tspan><tspan x="277" dy="19">0</tspan><tspan x="277" dy="19">1</tspan><tspan x="277" dy="19">0</tspan><tspan x="277" dy="19">1</tspan><tspan x="277" dy="19">0</tspan><tspan x="277" dy="19">1</tspan><tspan x="277" dy="19">1</tspan><tspan x="277" dy="19">1</tspan></text><text class="rain" style="animation-duration:13.1s;animation-delay:-11.9s" opacity="0.10"><tspan x="315" dy="19">1</tspan><tspan x="315" dy="19">0</tspan><tspan x="315" dy="19">0</tspan><tspan x="315" dy="19">0</tspan><tspan x="315" dy="19">1</tspan><tspan x="315" dy="19">0</tspan><tspan x="315" dy="19">0</tspan><tspan x="315" dy="19">0</tspan><tspan x="315" dy="19">0</tspan><tspan x="315" dy="19">0</tspan><tspan x="315" dy="19">1</tspan><tspan x="315" dy="19">0</tspan><tspan x="315" dy="19">0</tspan><tspan x="315" dy="19">1</tspan><tspan x="315" dy="19">1</tspan><tspan x="315" dy="19">0</tspan><tspan x="315" dy="19">0</tspan><tspan x="315" dy="19">0</tspan><tspan x="315" dy="19">0</tspan><tspan x="315" dy="19">1</tspan><tspan x="315" dy="19">0</tspan><tspan x="315" dy="19">0</tspan><tspan x="315" dy="19">1</tspan><tspan x="315" dy="19">0</tspan></text><text class="rain" style="animation-duration:9.0s;animation-delay:-1.2s" opacity="0.10"><tspan x="350" dy="19">0</tspan><tspan x="350" dy="19">1</tspan><tspan x="350" dy="19">1</tspan><tspan x="350" dy="19">1</tspan><tspan x="350" dy="19">0</tspan><tspan x="350" dy="19">1</tspan><tspan x="350" dy="19">0</tspan><tspan x="350" dy="19">1</tspan><tspan x="350" dy="19">0</tspan><tspan x="350" dy="19">1</tspan><tspan x="350" dy="19">0</tspan><tspan x="350" dy="19">1</tspan><tspan x="350" dy="19">1</tspan><tspan x="350" dy="19">1</tspan><tspan x="350" dy="19">0</tspan><tspan x="350" dy="19">0</tspan><tspan x="350" dy="19">1</tspan><tspan x="350" dy="19">0</tspan><tspan x="350" dy="19">0</tspan><tspan x="350" dy="19">1</tspan><tspan x="350" dy="19">0</tspan><tspan x="350" dy="19">0</tspan><tspan x="350" dy="19">1</tspan><tspan x="350" dy="19">0</tspan></text><text class="rain" style="animation-duration:14.9s;animation-delay:-11.7s" opacity="0.16"><tspan x="375" dy="19">1</tspan><tspan x="375" dy="19">1</tspan><tspan x="375" dy="19">0</tspan><tspan x="375" dy="19">0</tspan><tspan x="375" dy="19">0</tspan><tspan x="375" dy="19">1</tspan><tspan x="375" dy="19">1</tspan><tspan x="375" dy="19">1</tspan><tspan x="375" dy="19">1</tspan><tspan x="375" dy="19">0</tspan><tspan x="375" dy="19">1</tspan><tspan x="375" dy="19">1</tspan><tspan x="375" dy="19">0</tspan><tspan x="375" dy="19">1</tspan><tspan x="375" dy="19">0</tspan><tspan x="375" dy="19">1</tspan><tspan x="375" dy="19">1</tspan><tspan x="375" dy="19">1</tspan><tspan x="375" dy="19">0</tspan><tspan x="375" dy="19">1</tspan><tspan x="375" dy="19">1</tspan><tspan x="375" dy="19">1</tspan><tspan x="375" dy="19">0</tspan><tspan x="375" dy="19">0</tspan></text><text class="rain" style="animation-duration:11.9s;animation-delay:-2.6s" opacity="0.08"><tspan x="408" dy="19">0</tspan><tspan x="408" dy="19">1</tspan><tspan x="408" dy="19">1</tspan><tspan x="408" dy="19">0</tspan><tspan x="408" dy="19">0</tspan><tspan x="408" dy="19">1</tspan><tspan x="408" dy="19">0</tspan><tspan x="408" dy="19">1</tspan><tspan x="408" dy="19">1</tspan><tspan x="408" dy="19">1</tspan><tspan x="408" dy="19">0</tspan><tspan x="408" dy="19">1</tspan><tspan x="408" dy="19">1</tspan><tspan x="408" dy="19">0</tspan><tspan x="408" dy="19">1</tspan><tspan x="408" dy="19">0</tspan><tspan x="408" dy="19">0</tspan><tspan x="408" dy="19">1</tspan><tspan x="408" dy="19">0</tspan><tspan x="408" dy="19">1</tspan><tspan x="408" dy="19">0</tspan><tspan x="408" dy="19">0</tspan><tspan x="408" dy="19">1</tspan><tspan x="408" dy="19">0</tspan></text><text class="rain" style="animation-duration:7.3s;animation-delay:-0.1s" opacity="0.11"><tspan x="441" dy="19">1</tspan><tspan x="441" dy="19">0</tspan><tspan x="441" dy="19">1</tspan><tspan x="441" dy="19">1</tspan><tspan x="441" dy="19">1</tspan><tspan x="441" dy="19">0</tspan><tspan x="441" dy="19">0</tspan><tspan x="441" dy="19">0</tspan><tspan x="441" dy="19">0</tspan><tspan x="441" dy="19">0</tspan><tspan x="441" dy="19">1</tspan><tspan x="441" dy="19">0</tspan><tspan x="441" dy="19">0</tspan><tspan x="441" dy="19">0</tspan><tspan x="441" dy="19">1</tspan><tspan x="441" dy="19">1</tspan><tspan x="441" dy="19">0</tspan><tspan x="441" dy="19">1</tspan><tspan x="441" dy="19">1</tspan><tspan x="441" dy="19">0</tspan><tspan x="441" dy="19">1</tspan><tspan x="441" dy="19">1</tspan><tspan x="441" dy="19">0</tspan><tspan x="441" dy="19">1</tspan></text><text class="rain" style="animation-duration:12.3s;animation-delay:-4.7s" opacity="0.11"><tspan x="476" dy="19">1</tspan><tspan x="476" dy="19">0</tspan><tspan x="476" dy="19">1</tspan><tspan x="476" dy="19">0</tspan><tspan x="476" dy="19">1</tspan><tspan x="476" dy="19">1</tspan><tspan x="476" dy="19">1</tspan><tspan x="476" dy="19">1</tspan><tspan x="476" dy="19">0</tspan><tspan x="476" dy="19">0</tspan><tspan x="476" dy="19">1</tspan><tspan x="476" dy="19">0</tspan><tspan x="476" dy="19">0</tspan><tspan x="476" dy="19">1</tspan><tspan x="476" dy="19">1</tspan><tspan x="476" dy="19">0</tspan><tspan x="476" dy="19">0</tspan><tspan x="476" dy="19">0</tspan><tspan x="476" dy="19">0</tspan><tspan x="476" dy="19">1</tspan><tspan x="476" dy="19">1</tspan><tspan x="476" dy="19">0</tspan><tspan x="476" dy="19">0</tspan><tspan x="476" dy="19">0</tspan></text><text class="rain" style="animation-duration:9.2s;animation-delay:-6.1s" opacity="0.08"><tspan x="510" dy="19">0</tspan><tspan x="510" dy="19">1</tspan><tspan x="510" dy="19">0</tspan><tspan x="510" dy="19">1</tspan><tspan x="510" dy="19">0</tspan><tspan x="510" dy="19">0</tspan><tspan x="510" dy="19">1</tspan><tspan x="510" dy="19">1</tspan><tspan x="510" dy="19">0</tspan><tspan x="510" dy="19">1</tspan><tspan x="510" dy="19">1</tspan><tspan x="510" dy="19">1</tspan><tspan x="510" dy="19">1</tspan><tspan x="510" dy="19">0</tspan><tspan x="510" dy="19">0</tspan><tspan x="510" dy="19">1</tspan><tspan x="510" dy="19">0</tspan><tspan x="510" dy="19">1</tspan><tspan x="510" dy="19">0</tspan><tspan x="510" dy="19">0</tspan><tspan x="510" dy="19">1</tspan><tspan x="510" dy="19">1</tspan><tspan x="510" dy="19">0</tspan><tspan x="510" dy="19">1</tspan></text><text class="rain" style="animation-duration:7.7s;animation-delay:-0.3s" opacity="0.12"><tspan x="539" dy="19">0</tspan><tspan x="539" dy="19">1</tspan><tspan x="539" dy="19">0</tspan><tspan x="539" dy="19">0</tspan><tspan x="539" dy="19">1</tspan><tspan x="539" dy="19">0</tspan><tspan x="539" dy="19">1</tspan><tspan x="539" dy="19">0</tspan><tspan x="539" dy="19">1</tspan><tspan x="539" dy="19">1</tspan><tspan x="539" dy="19">0</tspan><tspan x="539" dy="19">0</tspan><tspan x="539" dy="19">0</tspan><tspan x="539" dy="19">1</tspan><tspan x="539" dy="19">1</tspan><tspan x="539" dy="19">1</tspan><tspan x="539" dy="19">0</tspan><tspan x="539" dy="19">1</tspan><tspan x="539" dy="19">0</tspan><tspan x="539" dy="19">0</tspan><tspan x="539" dy="19">1</tspan><tspan x="539" dy="19">0</tspan><tspan x="539" dy="19">0</tspan><tspan x="539" dy="19">0</tspan></text><text class="rain" style="animation-duration:14.3s;animation-delay:-4.1s" opacity="0.06"><tspan x="573" dy="19">1</tspan><tspan x="573" dy="19">1</tspan><tspan x="573" dy="19">0</tspan><tspan x="573" dy="19">0</tspan><tspan x="573" dy="19">0</tspan><tspan x="573" dy="19">1</tspan><tspan x="573" dy="19">1</tspan><tspan x="573" dy="19">0</tspan><tspan x="573" dy="19">1</tspan><tspan x="573" dy="19">0</tspan><tspan x="573" dy="19">0</tspan><tspan x="573" dy="19">0</tspan><tspan x="573" dy="19">1</tspan><tspan x="573" dy="19">1</tspan><tspan x="573" dy="19">0</tspan><tspan x="573" dy="19">1</tspan><tspan x="573" dy="19">0</tspan><tspan x="573" dy="19">0</tspan><tspan x="573" dy="19">0</tspan><tspan x="573" dy="19">1</tspan><tspan x="573" dy="19">1</tspan><tspan x="573" dy="19">1</tspan><tspan x="573" dy="19">0</tspan><tspan x="573" dy="19">1</tspan></text><text class="rain" style="animation-duration:14.5s;animation-delay:-0.3s" opacity="0.10"><tspan x="615" dy="19">0</tspan><tspan x="615" dy="19">0</tspan><tspan x="615" dy="19">0</tspan><tspan x="615" dy="19">1</tspan><tspan x="615" dy="19">1</tspan><tspan x="615" dy="19">1</tspan><tspan x="615" dy="19">0</tspan><tspan x="615" dy="19">0</tspan><tspan x="615" dy="19">1</tspan><tspan x="615" dy="19">0</tspan><tspan x="615" dy="19">1</tspan><tspan x="615" dy="19">1</tspan><tspan x="615" dy="19">0</tspan><tspan x="615" dy="19">0</tspan><tspan x="615" dy="19">1</tspan><tspan x="615" dy="19">1</tspan><tspan x="615" dy="19">1</tspan><tspan x="615" dy="19">1</tspan><tspan x="615" dy="19">1</tspan><tspan x="615" dy="19">1</tspan><tspan x="615" dy="19">0</tspan><tspan x="615" dy="19">0</tspan><tspan x="615" dy="19">1</tspan><tspan x="615" dy="19">0</tspan></text><text class="rain" style="animation-duration:9.4s;animation-delay:-1.3s" opacity="0.09"><tspan x="646" dy="19">1</tspan><tspan x="646" dy="19">1</tspan><tspan x="646" dy="19">1</tspan><tspan x="646" dy="19">0</tspan><tspan x="646" dy="19">0</tspan><tspan x="646" dy="19">0</tspan><tspan x="646" dy="19">0</tspan><tspan x="646" dy="19">0</tspan><tspan x="646" dy="19">1</tspan><tspan x="646" dy="19">1</tspan><tspan x="646" dy="19">0</tspan><tspan x="646" dy="19">1</tspan><tspan x="646" dy="19">0</tspan><tspan x="646" dy="19">1</tspan><tspan x="646" dy="19">0</tspan><tspan x="646" dy="19">1</tspan><tspan x="646" dy="19">1</tspan><tspan x="646" dy="19">1</tspan><tspan x="646" dy="19">0</tspan><tspan x="646" dy="19">0</tspan><tspan x="646" dy="19">0</tspan><tspan x="646" dy="19">1</tspan><tspan x="646" dy="19">1</tspan><tspan x="646" dy="19">1</tspan></text><text class="rain" style="animation-duration:12.1s;animation-delay:-1.8s" opacity="0.16"><tspan x="676" dy="19">0</tspan><tspan x="676" dy="19">1</tspan><tspan x="676" dy="19">0</tspan><tspan x="676" dy="19">1</tspan><tspan x="676" dy="19">1</tspan><tspan x="676" dy="19">1</tspan><tspan x="676" dy="19">0</tspan><tspan x="676" dy="19">0</tspan><tspan x="676" dy="19">0</tspan><tspan x="676" dy="19">1</tspan><tspan x="676" dy="19">1</tspan><tspan x="676" dy="19">1</tspan><tspan x="676" dy="19">0</tspan><tspan x="676" dy="19">1</tspan><tspan x="676" dy="19">1</tspan><tspan x="676" dy="19">0</tspan><tspan x="676" dy="19">1</tspan><tspan x="676" dy="19">1</tspan><tspan x="676" dy="19">1</tspan><tspan x="676" dy="19">0</tspan><tspan x="676" dy="19">1</tspan><tspan x="676" dy="19">0</tspan><tspan x="676" dy="19">0</tspan><tspan x="676" dy="19">1</tspan></text><text class="rain" style="animation-duration:10.2s;animation-delay:-2.4s" opacity="0.10"><tspan x="710" dy="19">1</tspan><tspan x="710" dy="19">0</tspan><tspan x="710" dy="19">1</tspan><tspan x="710" dy="19">1</tspan><tspan x="710" dy="19">0</tspan><tspan x="710" dy="19">1</tspan><tspan x="710" dy="19">0</tspan><tspan x="710" dy="19">0</tspan><tspan x="710" dy="19">0</tspan><tspan x="710" dy="19">1</tspan><tspan x="710" dy="19">1</tspan><tspan x="710" dy="19">0</tspan><tspan x="710" dy="19">1</tspan><tspan x="710" dy="19">1</tspan><tspan x="710" dy="19">0</tspan><tspan x="710" dy="19">0</tspan><tspan x="710" dy="19">0</tspan><tspan x="710" dy="19">1</tspan><tspan x="710" dy="19">1</tspan><tspan x="710" dy="19">1</tspan><tspan x="710" dy="19">1</tspan><tspan x="710" dy="19">1</tspan><tspan x="710" dy="19">1</tspan><tspan x="710" dy="19">1</tspan></text><text class="rain" style="animation-duration:14.1s;animation-delay:-10.6s" opacity="0.10"><tspan x="747" dy="19">1</tspan><tspan x="747" dy="19">0</tspan><tspan x="747" dy="19">0</tspan><tspan x="747" dy="19">0</tspan><tspan x="747" dy="19">0</tspan><tspan x="747" dy="19">0</tspan><tspan x="747" dy="19">1</tspan><tspan x="747" dy="19">0</tspan><tspan x="747" dy="19">1</tspan><tspan x="747" dy="19">1</tspan><tspan x="747" dy="19">1</tspan><tspan x="747" dy="19">1</tspan><tspan x="747" dy="19">0</tspan><tspan x="747" dy="19">0</tspan><tspan x="747" dy="19">0</tspan><tspan x="747" dy="19">0</tspan><tspan x="747" dy="19">0</tspan><tspan x="747" dy="19">1</tspan><tspan x="747" dy="19">0</tspan><tspan x="747" dy="19">1</tspan><tspan x="747" dy="19">0</tspan><tspan x="747" dy="19">1</tspan><tspan x="747" dy="19">1</tspan><tspan x="747" dy="19">0</tspan></text><text class="rain" style="animation-duration:7.0s;animation-delay:-2.7s" opacity="0.15"><tspan x="776" dy="19">0</tspan><tspan x="776" dy="19">1</tspan><tspan x="776" dy="19">1</tspan><tspan x="776" dy="19">1</tspan><tspan x="776" dy="19">0</tspan><tspan x="776" dy="19">1</tspan><tspan x="776" dy="19">1</tspan><tspan x="776" dy="19">1</tspan><tspan x="776" dy="19">0</tspan><tspan x="776" dy="19">0</tspan><tspan x="776" dy="19">0</tspan><tspan x="776" dy="19">1</tspan><tspan x="776" dy="19">0</tspan><tspan x="776" dy="19">1</tspan><tspan x="776" dy="19">1</tspan><tspan x="776" dy="19">1</tspan><tspan x="776" dy="19">1</tspan><tspan x="776" dy="19">1</tspan><tspan x="776" dy="19">0</tspan><tspan x="776" dy="19">0</tspan><tspan x="776" dy="19">0</tspan><tspan x="776" dy="19">1</tspan><tspan x="776" dy="19">1</tspan><tspan x="776" dy="19">1</tspan></text><text class="rain" style="animation-duration:10.1s;animation-delay:-2.3s" opacity="0.12"><tspan x="811" dy="19">1</tspan><tspan x="811" dy="19">1</tspan><tspan x="811" dy="19">0</tspan><tspan x="811" dy="19">0</tspan><tspan x="811" dy="19">0</tspan><tspan x="811" dy="19">0</tspan><tspan x="811" dy="19">0</tspan><tspan x="811" dy="19">0</tspan><tspan x="811" dy="19">1</tspan><tspan x="811" dy="19">0</tspan><tspan x="811" dy="19">0</tspan><tspan x="811" dy="19">0</tspan><tspan x="811" dy="19">0</tspan><tspan x="811" dy="19">0</tspan><tspan x="811" dy="19">0</tspan><tspan x="811" dy="19">1</tspan><tspan x="811" dy="19">0</tspan><tspan x="811" dy="19">1</tspan><tspan x="811" dy="19">1</tspan><tspan x="811" dy="19">0</tspan><tspan x="811" dy="19">0</tspan><tspan x="811" dy="19">0</tspan><tspan x="811" dy="19">1</tspan><tspan x="811" dy="19">0</tspan></text><text class="rain" style="animation-duration:12.6s;animation-delay:-9.0s" opacity="0.09"><tspan x="836" dy="19">1</tspan><tspan x="836" dy="19">1</tspan><tspan x="836" dy="19">1</tspan><tspan x="836" dy="19">1</tspan><tspan x="836" dy="19">0</tspan><tspan x="836" dy="19">1</tspan><tspan x="836" dy="19">0</tspan><tspan x="836" dy="19">0</tspan><tspan x="836" dy="19">0</tspan><tspan x="836" dy="19">1</tspan><tspan x="836" dy="19">1</tspan><tspan x="836" dy="19">0</tspan><tspan x="836" dy="19">0</tspan><tspan x="836" dy="19">0</tspan><tspan x="836" dy="19">1</tspan><tspan x="836" dy="19">1</tspan><tspan x="836" dy="19">0</tspan><tspan x="836" dy="19">1</tspan><tspan x="836" dy="19">0</tspan><tspan x="836" dy="19">1</tspan><tspan x="836" dy="19">1</tspan><tspan x="836" dy="19">0</tspan><tspan x="836" dy="19">1</tspan><tspan x="836" dy="19">0</tspan></text><text class="rain" style="animation-duration:8.7s;animation-delay:-8.5s" opacity="0.07"><tspan x="875" dy="19">0</tspan><tspan x="875" dy="19">0</tspan><tspan x="875" dy="19">1</tspan><tspan x="875" dy="19">0</tspan><tspan x="875" dy="19">0</tspan><tspan x="875" dy="19">1</tspan><tspan x="875" dy="19">0</tspan><tspan x="875" dy="19">1</tspan><tspan x="875" dy="19">0</tspan><tspan x="875" dy="19">0</tspan><tspan x="875" dy="19">1</tspan><tspan x="875" dy="19">0</tspan><tspan x="875" dy="19">1</tspan><tspan x="875" dy="19">1</tspan><tspan x="875" dy="19">0</tspan><tspan x="875" dy="19">1</tspan><tspan x="875" dy="19">0</tspan><tspan x="875" dy="19">0</tspan><tspan x="875" dy="19">1</tspan><tspan x="875" dy="19">1</tspan><tspan x="875" dy="19">0</tspan><tspan x="875" dy="19">0</tspan><tspan x="875" dy="19">1</tspan><tspan x="875" dy="19">0</tspan></text><text class="rain" style="animation-duration:9.8s;animation-delay:-9.4s" opacity="0.06"><tspan x="902" dy="19">0</tspan><tspan x="902" dy="19">0</tspan><tspan x="902" dy="19">1</tspan><tspan x="902" dy="19">1</tspan><tspan x="902" dy="19">1</tspan><tspan x="902" dy="19">0</tspan><tspan x="902" dy="19">0</tspan><tspan x="902" dy="19">0</tspan><tspan x="902" dy="19">1</tspan><tspan x="902" dy="19">0</tspan><tspan x="902" dy="19">0</tspan><tspan x="902" dy="19">1</tspan><tspan x="902" dy="19">0</tspan><tspan x="902" dy="19">1</tspan><tspan x="902" dy="19">1</tspan><tspan x="902" dy="19">1</tspan><tspan x="902" dy="19">1</tspan><tspan x="902" dy="19">1</tspan><tspan x="902" dy="19">0</tspan><tspan x="902" dy="19">0</tspan><tspan x="902" dy="19">0</tspan><tspan x="902" dy="19">0</tspan><tspan x="902" dy="19">1</tspan><tspan x="902" dy="19">0</tspan></text><text class="rain" style="animation-duration:9.1s;animation-delay:-6.8s" opacity="0.15"><tspan x="938" dy="19">1</tspan><tspan x="938" dy="19">1</tspan><tspan x="938" dy="19">1</tspan><tspan x="938" dy="19">1</tspan><tspan x="938" dy="19">0</tspan><tspan x="938" dy="19">0</tspan><tspan x="938" dy="19">1</tspan><tspan x="938" dy="19">0</tspan><tspan x="938" dy="19">1</tspan><tspan x="938" dy="19">1</tspan><tspan x="938" dy="19">0</tspan><tspan x="938" dy="19">1</tspan><tspan x="938" dy="19">1</tspan><tspan x="938" dy="19">1</tspan><tspan x="938" dy="19">0</tspan><tspan x="938" dy="19">1</tspan><tspan x="938" dy="19">0</tspan><tspan x="938" dy="19">1</tspan><tspan x="938" dy="19">0</tspan><tspan x="938" dy="19">1</tspan><tspan x="938" dy="19">0</tspan><tspan x="938" dy="19">1</tspan><tspan x="938" dy="19">0</tspan><tspan x="938" dy="19">0</tspan></text><text class="rain" style="animation-duration:13.6s;animation-delay:-10.5s" opacity="0.12"><tspan x="973" dy="19">1</tspan><tspan x="973" dy="19">1</tspan><tspan x="973" dy="19">1</tspan><tspan x="973" dy="19">0</tspan><tspan x="973" dy="19">1</tspan><tspan x="973" dy="19">1</tspan><tspan x="973" dy="19">1</tspan><tspan x="973" dy="19">1</tspan><tspan x="973" dy="19">0</tspan><tspan x="973" dy="19">0</tspan><tspan x="973" dy="19">0</tspan><tspan x="973" dy="19">0</tspan><tspan x="973" dy="19">0</tspan><tspan x="973" dy="19">1</tspan><tspan x="973" dy="19">1</tspan><tspan x="973" dy="19">1</tspan><tspan x="973" dy="19">1</tspan><tspan x="973" dy="19">1</tspan><tspan x="973" dy="19">1</tspan><tspan x="973" dy="19">0</tspan><tspan x="973" dy="19">1</tspan><tspan x="973" dy="19">0</tspan><tspan x="973" dy="19">0</tspan><tspan x="973" dy="19">1</tspan></text><text class="rain" style="animation-duration:8.4s;animation-delay:-1.1s" opacity="0.10"><tspan x="1006" dy="19">1</tspan><tspan x="1006" dy="19">1</tspan><tspan x="1006" dy="19">1</tspan><tspan x="1006" dy="19">0</tspan><tspan x="1006" dy="19">0</tspan><tspan x="1006" dy="19">1</tspan><tspan x="1006" dy="19">0</tspan><tspan x="1006" dy="19">0</tspan><tspan x="1006" dy="19">1</tspan><tspan x="1006" dy="19">0</tspan><tspan x="1006" dy="19">0</tspan><tspan x="1006" dy="19">1</tspan><tspan x="1006" dy="19">1</tspan><tspan x="1006" dy="19">0</tspan><tspan x="1006" dy="19">1</tspan><tspan x="1006" dy="19">0</tspan><tspan x="1006" dy="19">0</tspan><tspan x="1006" dy="19">1</tspan><tspan x="1006" dy="19">0</tspan><tspan x="1006" dy="19">0</tspan><tspan x="1006" dy="19">0</tspan><tspan x="1006" dy="19">1</tspan><tspan x="1006" dy="19">1</tspan><tspan x="1006" dy="19">1</tspan></text><text class="rain" style="animation-duration:12.2s;animation-delay:-1.2s" opacity="0.10"><tspan x="1044" dy="19">0</tspan><tspan x="1044" dy="19">0</tspan><tspan x="1044" dy="19">1</tspan><tspan x="1044" dy="19">1</tspan><tspan x="1044" dy="19">1</tspan><tspan x="1044" dy="19">1</tspan><tspan x="1044" dy="19">1</tspan><tspan x="1044" dy="19">1</tspan><tspan x="1044" dy="19">1</tspan><tspan x="1044" dy="19">0</tspan><tspan x="1044" dy="19">1</tspan><tspan x="1044" dy="19">0</tspan><tspan x="1044" dy="19">0</tspan><tspan x="1044" dy="19">0</tspan><tspan x="1044" dy="19">0</tspan><tspan x="1044" dy="19">0</tspan><tspan x="1044" dy="19">1</tspan><tspan x="1044" dy="19">0</tspan><tspan x="1044" dy="19">1</tspan><tspan x="1044" dy="19">0</tspan><tspan x="1044" dy="19">1</tspan><tspan x="1044" dy="19">1</tspan><tspan x="1044" dy="19">0</tspan><tspan x="1044" dy="19">0</tspan></text><text class="rain" style="animation-duration:9.7s;animation-delay:-0.4s" opacity="0.16"><tspan x="1067" dy="19">0</tspan><tspan x="1067" dy="19">0</tspan><tspan x="1067" dy="19">1</tspan><tspan x="1067" dy="19">0</tspan><tspan x="1067" dy="19">1</tspan><tspan x="1067" dy="19">1</tspan><tspan x="1067" dy="19">0</tspan><tspan x="1067" dy="19">1</tspan><tspan x="1067" dy="19">0</tspan><tspan x="1067" dy="19">0</tspan><tspan x="1067" dy="19">0</tspan><tspan x="1067" dy="19">0</tspan><tspan x="1067" dy="19">0</tspan><tspan x="1067" dy="19">0</tspan><tspan x="1067" dy="19">1</tspan><tspan x="1067" dy="19">0</tspan><tspan x="1067" dy="19">1</tspan><tspan x="1067" dy="19">1</tspan><tspan x="1067" dy="19">0</tspan><tspan x="1067" dy="19">0</tspan><tspan x="1067" dy="19">1</tspan><tspan x="1067" dy="19">0</tspan><tspan x="1067" dy="19">0</tspan><tspan x="1067" dy="19">1</tspan></text><text class="rain" style="animation-duration:10.3s;animation-delay:-0.5s" opacity="0.13"><tspan x="1100" dy="19">0</tspan><tspan x="1100" dy="19">0</tspan><tspan x="1100" dy="19">1</tspan><tspan x="1100" dy="19">1</tspan><tspan x="1100" dy="19">1</tspan><tspan x="1100" dy="19">0</tspan><tspan x="1100" dy="19">1</tspan><tspan x="1100" dy="19">0</tspan><tspan x="1100" dy="19">0</tspan><tspan x="1100" dy="19">0</tspan><tspan x="1100" dy="19">1</tspan><tspan x="1100" dy="19">1</tspan><tspan x="1100" dy="19">0</tspan><tspan x="1100" dy="19">1</tspan><tspan x="1100" dy="19">0</tspan><tspan x="1100" dy="19">1</tspan><tspan x="1100" dy="19">0</tspan><tspan x="1100" dy="19">0</tspan><tspan x="1100" dy="19">0</tspan><tspan x="1100" dy="19">1</tspan><tspan x="1100" dy="19">1</tspan><tspan x="1100" dy="19">1</tspan><tspan x="1100" dy="19">1</tspan><tspan x="1100" dy="19">1</tspan></text><text class="rain" style="animation-duration:11.6s;animation-delay:-10.7s" opacity="0.13"><tspan x="1138" dy="19">1</tspan><tspan x="1138" dy="19">1</tspan><tspan x="1138" dy="19">0</tspan><tspan x="1138" dy="19">1</tspan><tspan x="1138" dy="19">0</tspan><tspan x="1138" dy="19">1</tspan><tspan x="1138" dy="19">1</tspan><tspan x="1138" dy="19">0</tspan><tspan x="1138" dy="19">0</tspan><tspan x="1138" dy="19">1</tspan><tspan x="1138" dy="19">0</tspan><tspan x="1138" dy="19">1</tspan><tspan x="1138" dy="19">0</tspan><tspan x="1138" dy="19">0</tspan><tspan x="1138" dy="19">1</tspan><tspan x="1138" dy="19">1</tspan><tspan x="1138" dy="19">1</tspan><tspan x="1138" dy="19">0</tspan><tspan x="1138" dy="19">0</tspan><tspan x="1138" dy="19">0</tspan><tspan x="1138" dy="19">0</tspan><tspan x="1138" dy="19">0</tspan><tspan x="1138" dy="19">1</tspan><tspan x="1138" dy="19">0</tspan></text><text class="rain" style="animation-duration:11.5s;animation-delay:-0.5s" opacity="0.15"><tspan x="1168" dy="19">0</tspan><tspan x="1168" dy="19">1</tspan><tspan x="1168" dy="19">1</tspan><tspan x="1168" dy="19">0</tspan><tspan x="1168" dy="19">0</tspan><tspan x="1168" dy="19">0</tspan><tspan x="1168" dy="19">0</tspan><tspan x="1168" dy="19">1</tspan><tspan x="1168" dy="19">1</tspan><tspan x="1168" dy="19">0</tspan><tspan x="1168" dy="19">1</tspan><tspan x="1168" dy="19">0</tspan><tspan x="1168" dy="19">0</tspan><tspan x="1168" dy="19">1</tspan><tspan x="1168" dy="19">1</tspan><tspan x="1168" dy="19">0</tspan><tspan x="1168" dy="19">1</tspan><tspan x="1168" dy="19">0</tspan><tspan x="1168" dy="19">0</tspan><tspan x="1168" dy="19">0</tspan><tspan x="1168" dy="19">1</tspan><tspan x="1168" dy="19">0</tspan><tspan x="1168" dy="19">1</tspan><tspan x="1168" dy="19">0</tspan></text></g>
  <rect width="1200" height="460" fill="url(#gl)"/>
  <rect class="scan" width="1200" height="160" fill="url(#sc)"/>
  <g class="badge"><rect x="460.0" y="66" width="280" height="30" rx="15" fill="#5b7cfa" fill-opacity=".08" stroke="#5b7cfa" stroke-opacity=".45"/>
    <text x="600.0" y="86" text-anchor="middle" font-family="ui-monospace,SFMono-Regular,Menlo,Consolas,'Liberation Mono',monospace" font-size="13" letter-spacing="3" fill="#5b7cfa">[ SECURITY RESEARCHER ]</text></g>
  <g font-family="-apple-system,BlinkMacSystemFont,'Segoe UI',Helvetica,Arial,sans-serif" font-size="88" font-weight="800" text-anchor="middle" letter-spacing="5">
    <text class="g1" x="600.0" y="215" fill="#e85aa8">HACKING NOTES</text>
    <text class="g2" x="600.0" y="215" fill="#3aa6c7">HACKING NOTES</text>
    <text x="600.0" y="215" fill="url(#ti)">HACKING NOTES</text>
  </g>
  <g clip-path="url(#ty)"><text x="296.4" y="279" font-family="ui-monospace,SFMono-Regular,Menlo,Consolas,'Liberation Mono',monospace" font-size="22" fill="#eceef0" xml:space="preserve">&gt; red team · blue team · bug bounty · research</text></g>
  <rect class="cur" x="298.4" y="259" width="12" height="26" fill="#5b7cfa"/>
  <path d="M170.0 346 H1030.0" stroke="#2a2b30"/>
  <g class="dot" style="animation-delay:0.00s"><circle cx="247" cy="388" r="5" fill="#ff6369"/><text x="259" y="393" font-family="ui-monospace,SFMono-Regular,Menlo,Consolas,'Liberation Mono',monospace" font-size="13" letter-spacing="1" fill="#8b8e96">OFFENSE</text></g><g class="dot" style="animation-delay:0.30s"><circle cx="457" cy="388" r="5" fill="#5b7cfa"/><text x="469" y="393" font-family="ui-monospace,SFMono-Regular,Menlo,Consolas,'Liberation Mono',monospace" font-size="13" letter-spacing="1" fill="#8b8e96">DEFENSE</text></g><g class="dot" style="animation-delay:0.60s"><circle cx="674" cy="388" r="5" fill="#9a7cf0"/><text x="686" y="393" font-family="ui-monospace,SFMono-Regular,Menlo,Consolas,'Liberation Mono',monospace" font-size="13" letter-spacing="1" fill="#8b8e96">TOOLS</text></g><g class="dot" style="animation-delay:0.90s"><circle cx="888" cy="388" r="5" fill="#d9a441"/><text x="900" y="393" font-family="ui-monospace,SFMono-Regular,Menlo,Consolas,'Liberation Mono',monospace" font-size="13" letter-spacing="1" fill="#8b8e96">CVEs</text></g>
  <rect x="1" y="1" width="1198" height="458" rx="20" fill="none" stroke="#5b7cfa" stroke-opacity=".25"/>
</g>
</svg>
