<svg xmlns="http://www.w3.org/2000/svg" width="560" height="196" viewBox="0 0 560 196" role="img" aria-label="Burp × Obsidian"><title>Burp × Obsidian</title><style>.u{transform-box:fill-box;transform-origin:left;animation:u 5s ease-in-out infinite}@keyframes u{0%{transform:scaleX(0)}45%,90%{transform:scaleX(1)}100%{transform:scaleX(0)}}.ic{transform-box:fill-box;transform-origin:center;animation:ic 4s ease-in-out infinite}@keyframes ic{0%,100%{transform:translateY(0)}50%{transform:translateY(-3px)}}@media (prefers-reduced-motion: reduce){*{animation:none!important}}</style><rect x="0.75" y="0.75" width="558.5" height="194.5" rx="12" fill="#ffffff" stroke="#e6e8eb"/><circle cx="34" cy="37" r="3" fill="#3e63dd"/><text x="46" y="42" font-family="ui-monospace,SFMono-Regular,Menlo,Consolas,'Liberation Mono',monospace" font-size="12" letter-spacing="2" fill="#9aa1ab">04</text><text x="72" y="42" font-family="ui-monospace,SFMono-Regular,Menlo,Consolas,'Liberation Mono',monospace" font-size="11" letter-spacing="2" fill="#9aa1ab">· NOTE-TAKING</text><g transform="translate(514 88)"><g class="ic"><circle cx="0" cy="0" r="3" fill="none" stroke="#15171a" stroke-width="1.6" stroke-linecap="round" stroke-linejoin="round"/><circle cx="-11" cy="-8" r="2.2" fill="none" stroke="#15171a" stroke-width="1.6" stroke-linecap="round" stroke-linejoin="round"/><circle cx="12" cy="-6" r="2.2" fill="none" stroke="#15171a" stroke-width="1.6" stroke-linecap="round" stroke-linejoin="round"/><circle cx="8" cy="10" r="2.2" fill="none" stroke="#15171a" stroke-width="1.6" stroke-linecap="round" stroke-linejoin="round"/><path d="M0 0 L-11 -8 M0 0 L12 -6 M0 0 L8 10" fill="none" stroke="#15171a" stroke-width="1.6" stroke-linecap="round" stroke-linejoin="round"/></g></g><text x="30" y="94" font-family="-apple-system,BlinkMacSystemFont,'Segoe UI',Helvetica,Arial,sans-serif" font-size="26" font-weight="700" fill="#15171a">Burp × Obsidian</text><rect class="u" x="30" y="106" width="46" height="2" rx="1" fill="#3e63dd"/><text x="30" y="134" font-family="-apple-system,BlinkMacSystemFont,'Segoe UI',Helvetica,Arial,sans-serif" font-size="14.5" fill="#6b7280">Turns Burp output into a linked Obsidian</text><text x="30" y="155" font-family="-apple-system,BlinkMacSystemFont,'Segoe UI',Helvetica,Arial,sans-serif" font-size="14.5" fill="#6b7280">vault for structured bug-bounty notes.</text><line x1="30" y1="169" x2="534" y2="169" stroke="#e6e8eb"/><text x="30" y="185" font-family="ui-monospace,SFMono-Regular,Menlo,Consolas,'Liberation Mono',monospace" font-size="11.5" fill="#9aa1ab">burp extension · methodology</text><rect x="477" y="24" width="57" height="24" rx="12" fill="none" stroke="#e6e8eb"/><path transform="translate(494 36) scale(.52)" d="M0 -11 L3.2 -3.4 L11 -2.6 L5.2 2.6 L6.8 10.4 L0 6.2 L-6.8 10.4 L-5.2 2.6 L-11 -2.6 L-3.2 -3.4 Z" fill="#3e63dd"/><text x="506" y="40" font-family="ui-monospace,SFMono-Regular,Menlo,Consolas,'Liberation Mono',monospace" font-size="12" fill="#15171a">51</text></svg>
