<svg xmlns="http://www.w3.org/2000/svg" width="560" height="196" viewBox="0 0 560 196" role="img" aria-label="Hacker Roadmap"><title>Hacker Roadmap</title><style>.u{transform-box:fill-box;transform-origin:left;animation:u 5s ease-in-out infinite}@keyframes u{0%{transform:scaleX(0)}45%,90%{transform:scaleX(1)}100%{transform:scaleX(0)}}.ic{transform-box:fill-box;transform-origin:center;animation:ic 4s ease-in-out infinite}@keyframes ic{0%,100%{transform:translateY(0)}50%{transform:translateY(-3px)}}@media (prefers-reduced-motion: reduce){*{animation:none!important}}</style><rect x="0.75" y="0.75" width="558.5" height="194.5" rx="12" fill="#ffffff" stroke="#e6e8eb"/><circle cx="34" cy="37" r="3" fill="#3e63dd"/><text x="46" y="42" font-family="ui-monospace,SFMono-Regular,Menlo,Consolas,'Liberation Mono',monospace" font-size="12" letter-spacing="2" fill="#9aa1ab">02</text><text x="72" y="42" font-family="ui-monospace,SFMono-Regular,Menlo,Consolas,'Liberation Mono',monospace" font-size="11" letter-spacing="2" fill="#9aa1ab">· GUIDE</text><g transform="translate(514 88)"><g class="ic"><path d="M-12 -8 L-4 -11 L4 -8 L12 -11 V9 L4 12 L-4 9 L-12 12 Z" fill="none" stroke="#15171a" stroke-width="1.6" stroke-linecap="round" stroke-linejoin="round"/><path d="M-4 -11 V9 M4 -8 V12" fill="none" stroke="#15171a" stroke-width="1.6" stroke-linecap="round" stroke-linejoin="round"/></g></g><text x="30" y="94" font-family="-apple-system,BlinkMacSystemFont,'Segoe UI',Helvetica,Arial,sans-serif" font-size="26" font-weight="700" fill="#15171a">Hacker Roadmap</text><rect class="u" x="30" y="106" width="46" height="2" rx="1" fill="#3e63dd"/><text x="30" y="134" font-family="-apple-system,BlinkMacSystemFont,'Segoe UI',Helvetica,Arial,sans-serif" font-size="14.5" fill="#6b7280">Structured paths from zero to pro:</text><text x="30" y="155" font-family="-apple-system,BlinkMacSystemFont,'Segoe UI',Helvetica,Arial,sans-serif" font-size="14.5" fill="#6b7280">hobbyist, bug bounty, certs &amp; degree.</text><line x1="30" y1="169" x2="534" y2="169" stroke="#e6e8eb"/><text x="30" y="185" font-family="ui-monospace,SFMono-Regular,Menlo,Consolas,'Liberation Mono',monospace" font-size="11.5" fill="#9aa1ab">github.com/Hacking-Notes/Hacker-Roadmap</text><rect x="462" y="24" width="72" height="24" rx="12" fill="none" stroke="#e6e8eb"/><path transform="translate(479 36) scale(.52)" d="M0 -11 L3.2 -3.4 L11 -2.6 L5.2 2.6 L6.8 10.4 L0 6.2 L-6.8 10.4 L-5.2 2.6 L-11 -2.6 L-3.2 -3.4 Z" fill="#3e63dd"/><text x="491" y="40" font-family="ui-monospace,SFMono-Regular,Menlo,Consolas,'Liberation Mono',monospace" font-size="12" fill="#15171a">1.3k</text></svg>
